<svg class="animated" id="freepik_stories-download" xmlns="http://www.w3.org/2000/svg" viewBox="0 0 500 500" version="1.1" xmlns:xlink="http://www.w3.org/1999/xlink" xmlns:svgjs="http://svgjs.com/svgjs"><style>svg#freepik_stories-download:not(.animated) .animable {opacity: 0;}svg#freepik_stories-download.animated #freepik--Floor--inject-2 {animation: 1s 1 forwards cubic-bezier(.36,-0.01,.5,1.38) zoomIn;animation-delay: 0s;}svg#freepik_stories-download.animated #freepik--Shadows--inject-2 {animation: 1s 1 forwards cubic-bezier(.36,-0.01,.5,1.38) slideDown;animation-delay: 0s;}svg#freepik_stories-download.animated #freepik--Plant--inject-2 {animation: 1s 1 forwards cubic-bezier(.36,-0.01,.5,1.38) slideLeft;animation-delay: 0s;}svg#freepik_stories-download.animated #freepik--Folder--inject-2 {animation: 1s 1 forwards cubic-bezier(.36,-0.01,.5,1.38) slideLeft;animation-delay: 0s;}svg#freepik_stories-download.animated #freepik--Arrow--inject-2 {animation: 1s 1 forwards cubic-bezier(.36,-0.01,.5,1.38) zoomOut;animation-delay: 0s;}svg#freepik_stories-download.animated #freepik--Files--inject-2 {animation: 1s 1 forwards cubic-bezier(.36,-0.01,.5,1.38) slideUp;animation-delay: 0s;}svg#freepik_stories-download.animated #freepik--Stairs--inject-2 {animation: 1s 1 forwards cubic-bezier(.36,-0.01,.5,1.38) slideDown;animation-delay: 0s;}svg#freepik_stories-download.animated #freepik--Character--inject-2 {animation: 1s 1 forwards cubic-bezier(.36,-0.01,.5,1.38) zoomOut;animation-delay: 0s;}            @keyframes zoomIn {                0% {                    opacity: 0;                    transform: scale(0.5);                }                100% {                    opacity: 1;                    transform: scale(1);                }            }                    @keyframes slideDown {                0% {                    opacity: 0;                    transform: translateY(-30px);                }                100% {                    opacity: 1;                    transform: translateY(0);                }            }                    @keyframes slideLeft {                0% {                    opacity: 0;                    transform: translateX(-30px);                }                100% {                    opacity: 1;                    transform: translateX(0);                }            }                    @keyframes zoomOut {                0% {                    opacity: 0;                    transform: scale(1.5);                }                100% {                    opacity: 1;                    transform: scale(1);                }            }                    @keyframes slideUp {                0% {                    opacity: 0;                    transform: translateY(30px);                }                100% {                    opacity: 1;                    transform: inherit;                }            }        </style><g id="freepik--Floor--inject-2" style="transform-origin: 250px 350.86px 0px;" class="animable"><ellipse cx="250" cy="350.86" rx="222.94" ry="128.72" style="fill: rgb(245, 245, 245); transform-origin: 250px 350.86px 0px;" id="elzfnd2xtbt9h" class="animable"></ellipse></g><g id="freepik--Shadows--inject-2" style="transform-origin: 235.99px 352.791px 0px;" class="animable"><ellipse cx="88.78" cy="364.13" rx="32.53" ry="18.78" style="fill: rgb(224, 224, 224); transform-origin: 88.78px 364.13px 0px;" id="elkysd6nodrug" class="animable"></ellipse><polygon points="223.08 323.01 133.47 374.75 68.32 336.85 157.93 285.12 223.08 323.01" style="fill: rgb(224, 224, 224); transform-origin: 145.7px 329.935px 0px;" id="elghaknrn9z37" class="animable"></polygon><path d="M369.11,429.26,148.82,302.07a3,3,0,0,1,0-5.21l35.56-20.53a9.51,9.51,0,0,1,9.54,0L414.21,403.51a3,3,0,0,1,0,5.22l-35.55,20.53A9.58,9.58,0,0,1,369.11,429.26Z" style="fill: rgb(224, 224, 224); transform-origin: 281.52px 352.791px 0px;" id="elbdu9xx0izx" class="animable"></path></g><g id="freepik--Plant--inject-2" style="transform-origin: 420.365px 336.518px 0px;" class="animable"><path d="M403.48,363.54l12.38,7.19s-6.25-19.94-2.78-40c1.31-7.58,4.06-11.34,5-13.36s8.44-14.54,1.87-20.3-22,5.7-21.3,36.6A119.76,119.76,0,0,0,403.48,363.54Z" style="fill: rgb(186, 104, 200); transform-origin: 410.623px 333.184px 0px;" id="el8egibipv9e7" class="animable"></path><g id="ellalk9oxqnd"><path d="M403.48,363.54l12.38,7.19s-6.25-19.94-2.78-40c1.31-7.58,4.06-11.34,5-13.36s8.44-14.54,1.87-20.3-22,5.7-21.3,36.6A119.76,119.76,0,0,0,403.48,363.54Z" style="opacity: 0.3; transform-origin: 410.623px 333.184px 0px;" class="animable"></path></g><path d="M409.23,367.33a.45.45,0,0,1-.42-.29c-.05-.13-4.72-13.11-4.48-33.94s11.24-32.09,11.35-32.2a.45.45,0,0,1,.64.64c-.11.11-10.85,11-11.09,31.57s4.38,33.49,4.42,33.62a.44.44,0,0,1-.26.57A.45.45,0,0,1,409.23,367.33Z" style="fill: rgb(255, 255, 255); transform-origin: 410.387px 334.047px 0px;" id="el0o6fehhihyi" class="animable"></path><path d="M407,365.4l20.46,12s9.36-1.38,8.65-10.19-4.51-10.9.23-14.77,6-4.13,5.73-7.93-2.78-5.45-4-7-4.55-4.66-2.2-9.24,5.56-9,.81-11.1c-2.83-1.25-7.59.32-10.75,3.67s-5.75,5.76-8.74,6.54-9.23.84-9,6,1.55,6.93.3,9.22C406.09,347,396,349.28,407,365.4Z" style="fill: rgb(186, 104, 200); transform-origin: 422.033px 347.07px 0px;" id="elq5wyvj27vf9" class="animable"></path><path d="M415.29,370.75a.46.46,0,0,1-.45-.41c0-.31-2.24-30.75,18.91-50.74a.44.44,0,0,1,.63,0,.46.46,0,0,1,0,.64c-20.83,19.69-18.65,49.71-18.62,50a.46.46,0,0,1-.41.49Z" style="fill: rgb(255, 255, 255); transform-origin: 424.643px 345.109px 0px;" id="eldtnwscrtbf" class="animable"></path><path d="M419,344.61a.45.45,0,0,1-.45-.41A17.5,17.5,0,0,0,412.25,332a.45.45,0,0,1-.1-.63.44.44,0,0,1,.62-.1,18,18,0,0,1,6.64,12.9.46.46,0,0,1-.42.48Z" style="fill: rgb(255, 255, 255); transform-origin: 415.736px 337.916px 0px;" id="elwe9okmcnfx" class="animable"></path><path d="M417.45,349.82a.42.42,0,0,1-.3-.12.44.44,0,0,1,0-.63c.22-.24,5.53-6,17.79-4.28a.45.45,0,0,1,.39.5.46.46,0,0,1-.51.39c-11.76-1.62-16.95,3.93-17,4A.44.44,0,0,1,417.45,349.82Z" style="fill: rgb(255, 255, 255); transform-origin: 426.174px 347.146px 0px;" id="el2jrykf7smz5" class="animable"></path></g><g id="freepik--Folder--inject-2" style="transform-origin: 271.501px 269.043px 0px;" class="animable"><polygon points="384.06 273.54 355.51 256.82 372.51 280.2 384.06 273.54" style="fill: rgb(186, 104, 200); transform-origin: 369.785px 268.51px 0px;" id="el95p4eihn4r" class="animable"></polygon><g id="elloerr61ve9r"><polygon points="384.06 273.54 355.51 256.82 372.51 280.2 384.06 273.54" style="opacity: 0.6; transform-origin: 369.785px 268.51px 0px;" class="animable"></polygon></g><path d="M367.09,335.42,200,238.94a4.71,4.71,0,0,1-2.36-4.08V120.77a4.72,4.72,0,0,1,7.07-4.09l167.11,96.48a4.73,4.73,0,0,1,2.36,4.09V331.34A4.72,4.72,0,0,1,367.09,335.42Z" style="fill: rgb(224, 224, 224); transform-origin: 285.91px 226.055px 0px;" id="elyqnfh9trl0f" class="animable"></path><path d="M372.51,280.2l11.55-6.66v135a6.91,6.91,0,0,1-3.47,6l-11.41,6.61Z" style="fill: rgb(186, 104, 200); transform-origin: 376.619px 347.344px 0px;" id="eledxdlvefplm" class="animable"></path><g id="elehqppfm1na8"><path d="M372.51,280.2l11.55-6.66v135a6.91,6.91,0,0,1-3.47,6l-11.41,6.61Z" style="opacity: 0.3; transform-origin: 376.619px 347.344px 0px;" class="animable"></path></g><path d="M359.51,339.69,192.4,243.21a4.74,4.74,0,0,1-2.35-4.09V125a4.71,4.71,0,0,1,7.07-4.08l167.11,96.48a4.71,4.71,0,0,1,2.36,4.08V335.6A4.72,4.72,0,0,1,359.51,339.69Z" style="fill: rgb(235, 235, 235); transform-origin: 278.32px 230.305px 0px;" id="elsgv37pw8g0f" class="animable"></path><path d="M351.92,344.15l-167.1-96.47a4.73,4.73,0,0,1-2.36-4.09V129.5a4.71,4.71,0,0,1,7.07-4.08L356.64,221.9A4.71,4.71,0,0,1,359,226V340.07A4.72,4.72,0,0,1,351.92,344.15Z" style="fill: rgb(250, 250, 250); transform-origin: 270.73px 234.783px 0px;" id="ely4lfv3y1bp" class="animable"></path><path d="M158.94,128V295.7a13.55,13.55,0,0,0,6.78,11.74l197,113.72a6.55,6.55,0,0,0,9.82-5.67V280.2l-103.9-60L250.69,178.8a39.24,39.24,0,0,0-16.4-18.39l-65.75-38A6.4,6.4,0,0,0,158.94,128Z" style="fill: rgb(186, 104, 200); transform-origin: 265.74px 271.793px 0px;" id="elhjb9i8xfxq6" class="animable"></path><g id="eljx8c2o6zt9c"><path d="M158.94,128V295.7a13.55,13.55,0,0,0,6.78,11.74l197,113.72a6.55,6.55,0,0,0,9.82-5.67V280.2l-103.9-60L250.69,178.8a39.24,39.24,0,0,0-16.4-18.39l-65.75-38A6.4,6.4,0,0,0,158.94,128Z" style="opacity: 0.2; transform-origin: 265.74px 271.793px 0px;" class="animable"></path></g><path d="M315.06,311c-.55-.32-1.1-.6-1.64-.85C313,297.25,304,282,293,275.64c-3.71-2.15-7.19-3-10.19-2.74-4.2-13.62-13.85-27-25.09-33.52-14.34-8.28-26.1-2.31-27.24,13.25-.69-.48-1.39-.93-2.09-1.34-10.89-6.28-19.71-1.19-19.71,11.38s8.82,27.86,19.71,34.14l86.7,50.06c8.59,5,15.55.94,15.55-9S323.65,315.91,315.06,311Z" style="fill: rgb(186, 104, 200); transform-origin: 269.66px 292.33px 0px;" id="elk44z64jvjge" class="animable"></path><g id="elm66d24a84tf"><path d="M315.06,311c-.55-.32-1.1-.6-1.64-.85C313,297.25,304,282,293,275.64c-3.71-2.15-7.19-3-10.19-2.74-4.2-13.62-13.85-27-25.09-33.52-14.34-8.28-26.1-2.31-27.24,13.25-.69-.48-1.39-.93-2.09-1.34-10.89-6.28-19.71-1.19-19.71,11.38s8.82,27.86,19.71,34.14l86.7,50.06c8.59,5,15.55.94,15.55-9S323.65,315.91,315.06,311Z" style="fill: rgb(255, 255, 255); opacity: 0.4; transform-origin: 269.66px 292.33px 0px;" class="animable"></path></g><polygon points="241.19 309.83 261.62 347.08 283.45 333.85 274.82 328.98 274.82 292.11 251.56 278.71 251.56 315.88 241.19 309.83" style="fill: rgb(255, 255, 255); transform-origin: 262.32px 312.895px 0px;" id="elf1scv3i1799" class="animable"></polygon></g><g id="freepik--Arrow--inject-2" style="transform-origin: 179.008px 142.668px 0px;" class="animable"><path d="M182.42,74.42a102.53,102.53,0,0,0-97.73,71.52l-8.27-4.76a1.65,1.65,0,0,0-2.48,1.31,102,102,0,0,0,6.75,47.15,85,85,0,0,0,11.74,20.73,1.43,1.43,0,0,0,2.45-.36,95,95,0,0,1,14.74-25A93.11,93.11,0,0,1,123,171.5a2.19,2.19,0,0,0-.3-3.6l-9.92-5.73a88.4,88.4,0,0,1,171.74,5.55A102.53,102.53,0,0,0,182.42,74.42Z" style="fill: rgb(186, 104, 200); transform-origin: 179.008px 142.668px 0px;" id="el8z06om7fi0u" class="animable"></path><g id="el95vuazl3ssu"><path d="M182.42,74.42a102.53,102.53,0,0,0-97.73,71.52l-8.27-4.76a1.65,1.65,0,0,0-2.48,1.31,102,102,0,0,0,6.75,47.15,85,85,0,0,0,11.74,20.73,1.43,1.43,0,0,0,2.45-.36,95,95,0,0,1,14.74-25A93.11,93.11,0,0,1,123,171.5a2.19,2.19,0,0,0-.3-3.6l-9.92-5.73a88.4,88.4,0,0,1,171.74,5.55A102.53,102.53,0,0,0,182.42,74.42Z" style="fill: rgb(255, 255, 255); opacity: 0.4; transform-origin: 179.008px 142.668px 0px;" class="animable"></path></g></g><g id="freepik--Files--inject-2" style="transform-origin: 355.51px 117.5px 0px;" class="animable"><g id="elt7i9gk6v2ca"><ellipse cx="359.15" cy="60.29" rx="23.58" ry="40.84" style="fill: rgb(186, 104, 200); transform-origin: 359.15px 60.29px 0px; transform: rotate(-30deg);" class="animable"></ellipse></g><g id="el1l3yg55zfxa"><ellipse cx="359.15" cy="60.29" rx="23.58" ry="40.84" style="opacity: 0.2; transform-origin: 359.15px 60.29px 0px; transform: rotate(-30deg);" class="animable"></ellipse></g><g id="elxo0t31f5zkl"><ellipse cx="357.45" cy="61.26" rx="23.58" ry="40.84" style="fill: rgb(186, 104, 200); transform-origin: 357.45px 61.26px 0px; transform: rotate(-30deg);" class="animable"></ellipse></g><path d="M346,71,368.23,83.9a1.78,1.78,0,0,0,2.68-1.54V54.86a3.89,3.89,0,0,0-2-3.37L346.68,38.63A1.78,1.78,0,0,0,344,40.17v27.5A3.89,3.89,0,0,0,346,71Z" style="fill: rgb(186, 104, 200); transform-origin: 357.455px 61.2656px 0px;" id="elx2apo5pyyoq" class="animable"></path><g id="eloc689ageesb"><path d="M346,71,368.23,83.9a1.78,1.78,0,0,0,2.68-1.54V54.86a3.89,3.89,0,0,0-2-3.37L346.68,38.63A1.78,1.78,0,0,0,344,40.17v27.5A3.89,3.89,0,0,0,346,71Z" style="fill: rgb(255, 255, 255); opacity: 0.6; transform-origin: 357.455px 61.2656px 0px;" class="animable"></path></g><path d="M348.23,67,366.1,77.27A1.42,1.42,0,0,0,368.24,76V55.4a3.12,3.12,0,0,0-1.56-2.7L348.81,42.39a1.43,1.43,0,0,0-2.14,1.24V64.26A3.12,3.12,0,0,0,348.23,67Z" style="fill: rgb(186, 104, 200); transform-origin: 357.455px 59.832px 0px;" id="elpz0129tv8yd" class="animable"></path><g id="elpf59qfqjcx"><path d="M368.24,55.4V76a1.42,1.42,0,0,1-2.14,1.24L348.23,67a3.09,3.09,0,0,1-1.56-2.69V43.63a1.42,1.42,0,0,1,2.14-1.24l17.87,10.32A3.09,3.09,0,0,1,368.24,55.4Z" style="fill: rgb(255, 255, 255); opacity: 0.4; transform-origin: 357.455px 59.8164px 0px;" class="animable"></path></g><path d="M368.24,75.27V76a1.42,1.42,0,0,1-2.14,1.24L348.23,67a3.09,3.09,0,0,1-1.56-2.69v-2l4.68-4,5.52,7.86,5.39-6.41Z" style="fill: rgb(250, 250, 250); transform-origin: 357.455px 67.8731px 0px;" id="elrh0e1h94m4g" class="animable"></path><path d="M352.83,52.12a5.34,5.34,0,0,0,2.4,4.17c1.33.77,2.41.15,2.41-1.39a5.34,5.34,0,0,0-2.41-4.17C353.91,50,352.83,50.59,352.83,52.12Z" style="fill: rgb(250, 250, 250); transform-origin: 355.234px 53.5195px 0px;" id="eld95nxna17ko" class="animable"></path><g id="elhgtmv8ljzri"><ellipse cx="409.2" cy="162.96" rx="23.58" ry="40.84" style="fill: rgb(186, 104, 200); transform-origin: 409.2px 162.96px 0px; transform: rotate(-30deg);" class="animable"></ellipse></g><g id="elunts4oppjm"><ellipse cx="409.2" cy="162.96" rx="23.58" ry="40.84" style="opacity: 0.2; transform-origin: 409.2px 162.96px 0px; transform: rotate(-30deg);" class="animable"></ellipse></g><g id="elv0zkixcajxg"><ellipse cx="407.5" cy="163.94" rx="23.58" ry="40.84" style="fill: rgb(186, 104, 200); transform-origin: 407.5px 163.94px 0px; transform: rotate(-30deg);" class="animable"></ellipse></g><path d="M396.73,141.3a1.79,1.79,0,0,0-2.68,1.55v27.5a3.87,3.87,0,0,0,1.95,3.36l22.28,12.87A1.78,1.78,0,0,0,421,185V164.59l-6-12.79Z" style="fill: rgb(186, 104, 200); transform-origin: 407.525px 163.955px 0px;" id="elxn2a7rf6e8s" class="animable"></path><g id="el4o6yqt07j9"><path d="M396.73,141.3a1.79,1.79,0,0,0-2.68,1.55v27.5a3.87,3.87,0,0,0,1.95,3.36l22.28,12.87A1.78,1.78,0,0,0,421,185V164.59l-6-12.79Z" style="fill: rgb(255, 255, 255); opacity: 0.6; transform-origin: 407.525px 163.955px 0px;" class="animable"></path></g><path d="M414.13,156.48l.78-4.68,6,12.8-5.45-4.49A3.87,3.87,0,0,1,414.13,156.48Z" style="fill: rgb(186, 104, 200); transform-origin: 417.492px 158.201px 0px;" id="el3notgw7konc" class="animable"></path><g id="ele224pdfd80u"><path d="M414.13,156.48l.78-4.68,6,12.8-5.45-4.49A3.87,3.87,0,0,1,414.13,156.48Z" style="fill: rgb(255, 255, 255); opacity: 0.4; transform-origin: 417.492px 158.201px 0px;" class="animable"></path></g><path d="M416.3,167.22a.61.61,0,0,1-.31-.09L398.4,157a.62.62,0,0,1-.22-.84.61.61,0,0,1,.83-.22l17.6,10.15a.62.62,0,0,1,.22.84A.6.6,0,0,1,416.3,167.22Z" style="fill: rgb(250, 250, 250); transform-origin: 407.504px 161.539px 0px;" id="el60mckxwwi0g" class="animable"></path><path d="M416.3,173.18a.71.71,0,0,1-.31-.08L398.4,162.94a.62.62,0,0,1-.22-.84.61.61,0,0,1,.83-.22L416.61,172a.62.62,0,0,1,.22.84A.6.6,0,0,1,416.3,173.18Z" style="fill: rgb(250, 250, 250); transform-origin: 407.504px 167.49px 0px;" id="elp0gjss5ngo" class="animable"></path><path d="M416.3,179.14a.71.71,0,0,1-.31-.08L398.4,168.9a.62.62,0,0,1-.22-.84.61.61,0,0,1,.83-.22L416.61,178a.61.61,0,0,1-.31,1.14Z" style="fill: rgb(250, 250, 250); transform-origin: 407.508px 173.449px 0px;" id="elcm6qg57i3bp" class="animable"></path><g id="elih4oiodk6z7"><ellipse cx="303.51" cy="103" rx="23.58" ry="40.84" style="fill: rgb(186, 104, 200); transform-origin: 303.51px 103px 0px; transform: rotate(-29.8865deg);" class="animable"></ellipse></g><g id="eleb8fuukzjd"><ellipse cx="303.51" cy="103" rx="23.58" ry="40.84" style="opacity: 0.2; transform-origin: 303.51px 103px 0px; transform: rotate(-29.8865deg);" class="animable"></ellipse></g><g id="elqrj0vgna2wh"><ellipse cx="301.82" cy="103.97" rx="23.58" ry="40.84" style="fill: rgb(186, 104, 200); transform-origin: 301.82px 103.97px 0px; transform: rotate(-30deg);" class="animable"></ellipse></g><path d="M290.31,113.75l22.28,12.86a1.78,1.78,0,0,0,2.68-1.54V97.57a3.89,3.89,0,0,0-1.95-3.37L291,81.34a1.78,1.78,0,0,0-2.67,1.54v27.5A3.9,3.9,0,0,0,290.31,113.75Z" style="fill: rgb(186, 104, 200); transform-origin: 301.799px 103.979px 0px;" id="elpql3u2x6q1" class="animable"></path><g id="el5wd4q4mlw55"><path d="M290.31,113.75l22.28,12.86a1.78,1.78,0,0,0,2.68-1.54V97.57a3.89,3.89,0,0,0-1.95-3.37L291,81.34a1.78,1.78,0,0,0-2.67,1.54v27.5A3.9,3.9,0,0,0,290.31,113.75Z" style="fill: rgb(255, 255, 255); opacity: 0.6; transform-origin: 301.799px 103.979px 0px;" class="animable"></path></g><path d="M296.38,99.31v9.33a1.39,1.39,0,0,0,1.39,1.39h8.09a1.39,1.39,0,0,0,1.05-2.3l-8.09-9.33A1.39,1.39,0,0,0,296.38,99.31Z" style="fill: rgb(250, 250, 250); transform-origin: 301.814px 103.975px 0px;" id="eljuqn4saybz" class="animable"></path><path d="M359.15,100.52a.71.71,0,0,1-.71-.71V97.92a.71.71,0,0,1,.71-.71.7.7,0,0,1,.7.71v1.89A.7.7,0,0,1,359.15,100.52Z" style="fill: rgb(186, 104, 200); transform-origin: 359.146px 98.8652px 0px;" id="elwxvw8e0q1eq" class="animable"></path><path d="M359.15,206.3a.71.71,0,0,1-.71-.71v-3.78a.71.71,0,0,1,.71-.71.7.7,0,0,1,.7.71v3.78A.7.7,0,0,1,359.15,206.3Zm0-7.56a.71.71,0,0,1-.71-.71v-3.77a.71.71,0,0,1,.71-.71.7.7,0,0,1,.7.71V198A.7.7,0,0,1,359.15,198.74Zm0-7.55a.71.71,0,0,1-.71-.71V186.7a.71.71,0,0,1,.71-.71.7.7,0,0,1,.7.71v3.78A.7.7,0,0,1,359.15,191.19Zm0-7.56a.71.71,0,0,1-.71-.71v-3.78a.7.7,0,0,1,.71-.7.7.7,0,0,1,.7.7v3.78A.7.7,0,0,1,359.15,183.63Zm0-7.55a.71.71,0,0,1-.71-.71v-3.78a.71.71,0,0,1,.71-.71.7.7,0,0,1,.7.71v3.78A.7.7,0,0,1,359.15,176.08Zm0-7.56a.71.71,0,0,1-.71-.71V164a.71.71,0,0,1,.71-.71.7.7,0,0,1,.7.71v3.78A.7.7,0,0,1,359.15,168.52Zm0-7.56a.7.7,0,0,1-.71-.7v-3.78a.71.71,0,0,1,.71-.71.7.7,0,0,1,.7.71v3.78A.7.7,0,0,1,359.15,161Zm0-7.55a.71.71,0,0,1-.71-.71v-3.78a.71.71,0,0,1,.71-.71.7.7,0,0,1,.7.71v3.78A.7.7,0,0,1,359.15,153.41Zm0-7.56a.71.71,0,0,1-.71-.71v-3.77a.71.71,0,0,1,.71-.71.7.7,0,0,1,.7.71v3.77A.7.7,0,0,1,359.15,145.85Zm0-7.55a.71.71,0,0,1-.71-.71v-3.78a.71.71,0,0,1,.71-.71.7.7,0,0,1,.7.71v3.78A.7.7,0,0,1,359.15,138.3Zm0-7.56a.71.71,0,0,1-.71-.71v-3.78a.7.7,0,0,1,.71-.7.7.7,0,0,1,.7.7V130A.7.7,0,0,1,359.15,130.74Zm0-7.55a.71.71,0,0,1-.71-.71V118.7a.71.71,0,0,1,.71-.71.7.7,0,0,1,.7.71v3.78A.7.7,0,0,1,359.15,123.19Zm0-7.56a.71.71,0,0,1-.71-.71v-3.78a.71.71,0,0,1,.71-.71.7.7,0,0,1,.7.71v3.78A.7.7,0,0,1,359.15,115.63Zm0-7.56a.7.7,0,0,1-.71-.7v-3.78a.71.71,0,0,1,.71-.71.7.7,0,0,1,.7.71v3.78A.7.7,0,0,1,359.15,108.07Z" style="fill: rgb(186, 104, 200); transform-origin: 359.146px 154.59px 0px;" id="elab3c8tglxq" class="animable"></path><path d="M359.15,212a.7.7,0,0,1-.71-.7v-1.89a.71.71,0,0,1,.71-.71.7.7,0,0,1,.7.71v1.89A.7.7,0,0,1,359.15,212Z" style="fill: rgb(186, 104, 200); transform-origin: 359.146px 210.35px 0px;" id="eldc1zq6dj8d4" class="animable"></path><path d="M377,165.49a.69.69,0,0,1-.63-.39.7.7,0,0,1,.32-.95l1.69-.84a.7.7,0,1,1,.63,1.26l-1.69.85A.71.71,0,0,1,377,165.49Z" style="fill: rgb(186, 104, 200); transform-origin: 377.846px 164.361px 0px;" id="el9aghmgh0jkl" class="animable"></path><path d="M368.68,169.63a.69.69,0,0,1-.63-.39.7.7,0,0,1,.32-1l4.16-2.07a.71.71,0,0,1,1,.32.71.71,0,0,1-.32,1L369,169.56A.71.71,0,0,1,368.68,169.63Z" style="fill: rgb(186, 104, 200); transform-origin: 370.787px 167.852px 0px;" id="elsoh8t3xwqg9" class="animable"></path><path d="M362.83,172.54a.69.69,0,0,1-.63-.39.7.7,0,0,1,.32-1l1.69-.84a.71.71,0,0,1,1,.32.71.71,0,0,1-.32.95l-1.69.84A.71.71,0,0,1,362.83,172.54Z" style="fill: rgb(186, 104, 200); transform-origin: 363.693px 171.377px 0px;" id="el8ca0er8djh8" class="animable"></path><path d="M336.65,121.3a.69.69,0,0,1-.6-.34l-1-1.62a.7.7,0,0,1,.23-1,.72.72,0,0,1,1,.24l1,1.62a.7.7,0,0,1-.61,1.07Z" style="fill: rgb(186, 104, 200); transform-origin: 336.158px 119.766px 0px;" id="elw0b8ma3attd" class="animable"></path><path d="M352.17,146.91a.71.71,0,0,1-.61-.34l-1.94-3.2a.71.71,0,1,1,1.21-.74l1.94,3.2a.72.72,0,0,1-.24,1A.68.68,0,0,1,352.17,146.91Zm-3.88-6.4a.71.71,0,0,1-.61-.34l-1.94-3.2a.72.72,0,0,1,.24-1,.71.71,0,0,1,1,.24l1.94,3.2a.72.72,0,0,1-.6,1.08Zm-3.88-6.4a.73.73,0,0,1-.61-.35l-1.94-3.2a.71.71,0,0,1,1.21-.73L345,133a.7.7,0,0,1-.23,1A.75.75,0,0,1,344.41,134.11Zm-3.88-6.41a.72.72,0,0,1-.61-.34l-1.94-3.2a.71.71,0,0,1,1.22-.73l1.94,3.2a.7.7,0,0,1-.61,1.07Z" style="fill: rgb(186, 104, 200); transform-origin: 345.379px 134.998px 0px;" id="el7177ukaknu3" class="animable"></path><path d="M355.08,151.73a.7.7,0,0,1-.6-.35l-1-1.61a.71.71,0,0,1,1.21-.74l1,1.62a.7.7,0,0,1-.24,1A.7.7,0,0,1,355.08,151.73Z" style="fill: rgb(186, 104, 200); transform-origin: 354.602px 150.225px 0px;" id="el2b9gxxjw8kl" class="animable"></path></g><g id="freepik--Stairs--inject-2" style="transform-origin: 137.205px 309.98px 0px;" class="animable"><polygon points="149.62 258.49 104.76 285.02 104.76 309.81 81.34 322.93 81.34 336.26 124.8 361.47 193.07 323.16 193.07 283.7 149.62 258.49" style="fill: rgb(38, 50, 56); transform-origin: 137.205px 309.98px 0px;" id="elbc8my197yap" class="animable"></polygon><polygon points="81.34 322.93 124.8 348.14 124.8 361.47 81.34 336.26 81.34 322.93" style="fill: rgb(69, 90, 100); transform-origin: 103.07px 342.2px 0px;" id="elo2iozjkl4c9" class="animable"></polygon><polygon points="148.21 310.24 148.21 335.03 124.8 348.14 124.8 361.47 193.07 323.16 193.07 283.7 148.21 310.24" style="fill: rgb(38, 50, 56); transform-origin: 158.935px 322.585px 0px;" id="elee9ry3j3h2" class="animable"></polygon><polygon points="124.8 348.14 148.21 335.03 104.76 309.81 81.34 322.93 124.8 348.14" style="fill: rgb(55, 71, 79); transform-origin: 114.775px 328.975px 0px;" id="elkw20aypgxes" class="animable"></polygon><polygon points="148.21 335.03 148.21 310.24 104.76 285.02 104.76 309.81 148.21 335.03" style="fill: rgb(69, 90, 100); transform-origin: 126.485px 310.025px 0px;" id="elkduf9azgdf" class="animable"></polygon><polygon points="148.21 310.24 104.76 285.02 149.62 258.49 193.07 283.7 148.21 310.24" style="fill: rgb(55, 71, 79); transform-origin: 148.915px 284.365px 0px;" id="elzbvvbysn5n" class="animable"></polygon></g><g id="freepik--Character--inject-2" style="transform-origin: 127.242px 271.555px 0px;" class="animable"><path d="M160.52,193.37s-10.7,15-4.34,20.19,20.31,1,20.87-1.47S160.52,193.37,160.52,193.37Z" style="fill: rgb(38, 50, 56); transform-origin: 165.611px 204.705px 0px;" id="eljful2kp4npq" class="animable"></path><path d="M112.72,324.65,97,345.57l4.37,3.45s6.3-1.32,8.53-9.64A100,100,0,0,0,112.72,324.65Z" style="fill: rgb(255, 168, 167); transform-origin: 104.859px 336.834px 0px;" id="elq3v0561a78s" class="animable"></path><path d="M114.14,323.23s4.37,4,2.44,7.51-5.28,6.4-5.38,11.07-2.44,13-7.62,14.32-10.25-.48-10.15-2.32S97,345.57,97,345.57s4.76,2.95,8.27.1,4.32-14.82,4.32-14.82Z" style="fill: rgb(186, 104, 200); transform-origin: 105.25px 339.906px 0px;" id="ella2olbbbk5r" class="animable"></path><g id="el9a2ha1yuge7"><path d="M114.14,323.23s4.37,4,2.44,7.51-5.28,6.4-5.38,11.07-2.44,13-7.62,14.32-10.25-.48-10.15-2.32S97,345.57,97,345.57s4.76,2.95,8.27.1,4.32-14.82,4.32-14.82Z" style="opacity: 0.2; transform-origin: 105.25px 339.906px 0px;" class="animable"></path></g><path d="M141,258.47s-35.06,14.83-37.9,16.29-7.82,4-7.32,15.43,3.37,39.74,3.37,39.74l19.22-37L168,269.34Z" style="fill: rgb(186, 104, 200); transform-origin: 131.873px 294.199px 0px;" id="elodyyewug9xm" class="animable"></path><g id="el80we51mswxm"><path d="M141,258.47s-35.06,14.83-37.9,16.29-7.82,4-7.32,15.43,3.37,39.74,3.37,39.74l19.22-37L168,269.34Z" style="opacity: 0.5; transform-origin: 131.873px 294.199px 0px;" class="animable"></path></g><path d="M97.72,315.28c.74,8.08,1.41,14.65,1.41,14.65l19.22-37,35.39-16.85-8-6.29c-11.31,5.68-27.74,13.92-32.65,16.44-6.24,3.2-8.17,12.25-13.55,24.82C98.93,312.43,98.33,313.83,97.72,315.28Z" style="fill: rgb(186, 104, 200); transform-origin: 125.729px 299.859px 0px;" id="elqw3u2oi898" class="animable"></path><g id="elsfqlabl5k69"><path d="M97.72,315.28c.74,8.08,1.41,14.65,1.41,14.65l19.22-37,35.39-16.85-8-6.29c-11.31,5.68-27.74,13.92-32.65,16.44-6.24,3.2-8.17,12.25-13.55,24.82C98.93,312.43,98.33,313.83,97.72,315.28Z" style="opacity: 0.7; transform-origin: 125.729px 299.859px 0px;" class="animable"></path></g><polygon points="143.89 266.03 147.51 271.5 144.68 271.93 143.89 266.03" style="fill: rgb(186, 104, 200); transform-origin: 145.7px 268.98px 0px;" id="el415l5irbpju" class="animable"></polygon><g id="el16gymqhz8fd"><polygon points="143.89 266.03 147.51 271.5 144.68 271.93 143.89 266.03" style="opacity: 0.7; transform-origin: 145.7px 268.98px 0px;" class="animable"></polygon></g><path d="M97.19,353.81s.5.84.5,5.07S96,364,93.91,364.71s-8.3,5.26-10,7.24-8.56,4-15.34,2.82-8.21-5.66-4.95-8.53,12.55-8.1,12.55-8.1Z" style="fill: rgb(186, 104, 200); transform-origin: 79.8184px 364.465px 0px;" id="elc7avsh95pt4" class="animable"></path><path d="M178.37,267.23l-15.08-3.49s-41.89,21-48.13,24.2S107,300.2,101.6,312.77c-4,9.46-9.33,22.44-12.82,30.24,0,0,2.48,6.58,10.34,4.93h0c2.66-5.81,7.36-11,14.2-20.24a50.45,50.45,0,0,0,9.14-19.3,6.77,6.77,0,0,1,5-5.19c6.91-1.68,21-5.33,35.88-10.45C184.31,285.54,178.37,267.23,178.37,267.23Z" style="fill: rgb(186, 104, 200); transform-origin: 133.965px 305.973px 0px;" id="el0e9d60gqac8" class="animable"></path><g id="elf49gcrl9dn"><path d="M178.37,267.23l-15.08-3.49s-41.89,21-48.13,24.2S107,300.2,101.6,312.77c-4,9.46-9.33,22.44-12.82,30.24,0,0,2.48,6.58,10.34,4.93h0c2.66-5.81,7.36-11,14.2-20.24a50.45,50.45,0,0,0,9.14-19.3,6.77,6.77,0,0,1,5-5.19c6.91-1.68,21-5.33,35.88-10.45C184.31,285.54,178.37,267.23,178.37,267.23Z" style="opacity: 0.5; transform-origin: 133.965px 305.973px 0px;" class="animable"></path></g><path d="M88.78,343c-1.15,2.57-2.1,4.58-2.75,5.71-2.63,4.57-10.3,9.52-13,11.86s-3.27,3.22-.69,5.2c6.53,5,12.19-.46,15.85-4a45.34,45.34,0,0,1,8-5.87A1.63,1.63,0,0,0,97,354.8a27.35,27.35,0,0,1,2.13-6.86h0C91.26,349.59,88.78,343,88.78,343Z" style="fill: rgb(255, 168, 167); transform-origin: 84.9023px 355.391px 0px;" id="el1dxk93ve7kj" class="animable"></path><polygon points="162.38 281.55 136.01 296.77 92.16 271.42 118.53 255.88 162.38 281.55" style="fill: rgb(55, 71, 79); transform-origin: 127.27px 276.325px 0px;" id="elshm9vors2tb" class="animable"></polygon><polygon points="138.84 277.21 128.95 271.5 135.15 267.92 145.05 273.63 138.84 277.21" style="fill: rgb(38, 50, 56); transform-origin: 137px 272.565px 0px;" id="el36gyk08qb7y" class="animable"></polygon><polygon points="134.88 292.97 148.21 285.12 122.17 269.36 134.88 292.97" style="fill: rgb(38, 50, 56); transform-origin: 135.19px 281.165px 0px;" id="eltu3f1jxifp" class="animable"></polygon><path d="M135.66,245.92l-10.55,5a93.49,93.49,0,0,0-9.31,2.88s-7.34,3-7.68,5,5.51,6.71,10.64,4.4a16.71,16.71,0,0,1,4.29-1.55,15,15,0,0,0,8.43-3.62l8.53-2.34S144.41,247.15,135.66,245.92Z" style="fill: rgb(255, 168, 167); transform-origin: 124.611px 254.873px 0px;" id="elpb8m2v1w4b" class="animable"></path><path d="M128.83,260.64c-1.22,1.31-4.7,4.61-5.46,5.56s-2.56-1.5.59-5.15a29.63,29.63,0,0,0,7.6-4.14A29.87,29.87,0,0,1,128.83,260.64Z" style="fill: rgb(255, 168, 167); transform-origin: 126.861px 261.658px 0px;" id="elz9v4ks4esg8" class="animable"></path><path d="M157.25,209.24h0a10.36,10.36,0,0,0-11.46,6.95,45.43,45.43,0,0,0-2.15,10.37c-.91,10.86-1.16,16.29-1.16,16.29l-10.92,5s5.9.28,5.5,8.6L150.65,253Z" style="fill: rgb(186, 104, 200); transform-origin: 144.404px 232.779px 0px;" id="elrnvkph2tmw" class="animable"></path><g id="elvmneybg8bf"><path d="M157.25,209.24h0a10.36,10.36,0,0,0-11.46,6.95,45.43,45.43,0,0,0-2.15,10.37c-.91,10.86-1.16,16.29-1.16,16.29l-10.92,5s5.85.28,5.5,8.6L150.65,253Z" style="fill: rgb(255, 255, 255); opacity: 0.3; transform-origin: 144.404px 232.779px 0px;" class="animable"></path></g><path d="M142.48,242.85a7.55,7.55,0,0,1,3.22,2s-1.32-2.5-3.16-3.27Z" style="fill: rgb(186, 104, 200); transform-origin: 144.09px 243.215px 0px;" id="elbpqtxek4ekp" class="animable"></path><g id="elhbbet3yp14i"><path d="M142.48,242.85a7.55,7.55,0,0,1,3.22,2s-1.32-2.5-3.16-3.27Z" style="fill: rgb(255, 255, 255); opacity: 0.1; transform-origin: 144.09px 243.215px 0px;" class="animable"></path></g><path d="M152.47,184.58s-6.74-2-4.31-9.61,19.62-10.87,32.56,0c0,0,9.08-1.4,9.08,11.28s-5.08,18.47,2.74,21.77c0,0-4.77,4.52-8.63,0,0,0-.81,9.9-15.44,6.45Z" style="fill: rgb(38, 50, 56); transform-origin: 170.086px 191.594px 0px;" id="elwgrvqjy839f" class="animable"></path><path d="M174.47,213.56l7.66,3.26v22.46a49.82,49.82,0,0,0-3.83,18.12v11.12s-15.66,5.58-27.8-.46c-5.88-2.92-9.52-9.59-9.52-9.59s6.47-3.81,6.47-8.46a64.74,64.74,0,0,0-1.29-10.81,13,13,0,0,1-3.73-10.89c.86-7.42,14.82-19.07,14.82-19.07l5.2.71Z" style="fill: rgb(186, 104, 200); transform-origin: 161.555px 240.055px 0px;" id="el3qzpjmza6p3" class="animable"></path><polygon points="174.47 213.56 162.45 209.95 162.45 195.4 174.47 195.4 174.47 213.56" style="fill: rgb(255, 168, 167); transform-origin: 168.46px 204.48px 0px;" id="ellul1jdiof9" class="animable"></polygon><path d="M162.45,210a19.32,19.32,0,0,0,11-10.5v-4h-11Z" style="fill: rgb(242, 143, 143); transform-origin: 167.949px 202.75px 0px;" id="ellz58ofp5yue" class="animable"></path><path d="M159.65,175.69s-11,.64-9.64,19.45c.63,8.69,2.66,13.19,9.36,12.86,7.58-.37,18.35-5.58,17.65-20.46S159.65,175.69,159.65,175.69Z" style="fill: rgb(255, 168, 167); transform-origin: 163.473px 191.727px 0px;" id="elyebhdp415f" class="animable"></path><path d="M174.47,195.4s-3,.8-3-3.52c0,0-13.4-.91-16.36-14.21,0,0,1.32-4,9.69-4s15.39,7.39,13.21,17.56Z" style="fill: rgb(38, 50, 56); transform-origin: 166.762px 184.564px 0px;" id="el1wc43l26v8wi" class="animable"></path><polygon points="158.07 191.36 158.07 197.83 154.28 196.67 158.07 191.36" style="fill: rgb(242, 143, 143); transform-origin: 156.175px 194.595px 0px;" id="elkhiwnek0y0c" class="animable"></polygon><path d="M163.76,192.05a1.32,1.32,0,1,1-1.31-1.32A1.31,1.31,0,0,1,163.76,192.05Z" style="fill: rgb(38, 50, 56); transform-origin: 162.441px 192.049px 0px;" id="ellpsas0wpajc" class="animable"></path><path d="M155.1,191.13a1.32,1.32,0,1,1-1.31-1.31A1.32,1.32,0,0,1,155.1,191.13Z" style="fill: rgb(38, 50, 56); transform-origin: 153.781px 191.141px 0px;" id="elcn1yaep6xnb" class="animable"></path><path d="M152.18,188.39l2.58-1.53s-1-1-2-.41A1.8,1.8,0,0,0,152.18,188.39Z" style="fill: rgb(38, 50, 56); transform-origin: 153.43px 187.326px 0px;" id="eluirc9p7gqyq" class="animable"></path><path d="M158.4,200a6.69,6.69,0,0,0,4.24-1.14s.29,2.24-1.58,2.66A2.41,2.41,0,0,1,158.4,200Z" style="fill: rgb(242, 143, 143); transform-origin: 160.527px 200.207px 0px;" id="el4gbyerye5p6" class="animable"></path><path d="M173.41,195.89a7.27,7.27,0,0,1,.59-3.19,3.37,3.37,0,0,1,2.93-2.29c3.37-.09,3.83,3.16,3.78,4.32-.12,3-2.58,6.32-7.16,6.45Z" style="fill: rgb(255, 168, 167); transform-origin: 177.059px 195.795px 0px;" id="elmlq0egve1w" class="animable"></path><path d="M162.45,210l-3.55,4.61a4.49,4.49,0,0,0,1.47,6.71h0a7.66,7.66,0,0,0,9.53-2l4.57-5.71Z" style="fill: rgb(255, 168, 167); transform-origin: 166.219px 216.098px 0px;" id="el9tmafazrzm" class="animable"></path><path d="M162.38,265.4l-10,5.47a31.13,31.13,0,0,0-4.62,0c-1.78.22-6.5,1.08-7.72,1.13s-.05,2.33,3.15,2.13c0,0-7.21,3.3-7.47,5.28s5.78,6.48,10.82,4a16.35,16.35,0,0,1,4.21-1.72,15.11,15.11,0,0,0,8.28-4l8.43-2.7S171.16,266.26,162.38,265.4Z" style="fill: rgb(255, 168, 167); transform-origin: 151.973px 274.768px 0px;" id="elbgq8p02ezvv" class="animable"></path><path d="M182.13,216.82S176,221,177.05,234a152.64,152.64,0,0,1,0,23.63l-14.68,7.77a11.21,11.21,0,0,1,5,9.59s21.08-4.34,22.34-9.25,1.72-28.4,1.72-32.48S189.79,220.08,182.13,216.82Z" style="fill: rgb(186, 104, 200); transform-origin: 176.9px 245.904px 0px;" id="elnk430x43i3p" class="animable"></path><g id="elcj7zlazl5v"><path d="M182.13,216.82S176,221,177.05,234a152.64,152.64,0,0,1,0,23.63l-14.68,7.77a11.21,11.21,0,0,1,5,9.59s21.08-4.34,22.34-9.25,1.72-28.4,1.72-32.48S189.79,220.08,182.13,216.82Z" style="fill: rgb(255, 255, 255); opacity: 0.3; transform-origin: 176.9px 245.904px 0px;" class="animable"></path></g><path d="M177.06,257.63a12,12,0,0,1,4.72.86,10.08,10.08,0,0,0-4.63-2Z" style="fill: rgb(186, 104, 200); transform-origin: 179.42px 257.488px 0px;" id="el9qtcn0exsme" class="animable"></path><g id="el3f02b1qpmub"><path d="M177.06,257.63a12,12,0,0,1,4.72.86,10.08,10.08,0,0,0-4.63-2Z" style="fill: rgb(255, 255, 255); opacity: 0.1; transform-origin: 179.42px 257.488px 0px;" class="animable"></path></g><path d="M86.05,242.36l4.58,30a.09.09,0,0,0,0,.05l45.55,26.42a.07.07,0,0,0,.1-.07l-4.45-29.11a4.28,4.28,0,0,0-2-3L88.07,241A1.33,1.33,0,0,0,86.05,242.36Z" style="fill: rgb(69, 90, 100); transform-origin: 111.156px 269.814px 0px;" id="el1nd1zq670wt" class="animable"></path><path d="M136.21,298.84l24.32-14.09a3.71,3.71,0,0,0,1.85-3.2h0L136,296.77Z" style="fill: rgb(38, 50, 56); transform-origin: 149.189px 290.195px 0px;" id="elhmx026l9p1d" class="animable"></path><path d="M112.4,271.28c0,2.15-1.5,3-3.36,1.94a7.43,7.43,0,0,1-3.36-5.82c0-2.14,1.51-3,3.36-1.94A7.42,7.42,0,0,1,112.4,271.28Z" style="fill: rgb(55, 71, 79); transform-origin: 109.039px 269.342px 0px;" id="elczd1pya1fhu" class="animable"></path><g id="elq9xkrz7bvdk"><path d="M157.25,240.81s9.19,2.5,14.07-4.4C171.32,236.41,168.16,245.32,157.25,240.81Z" style="opacity: 0.2; transform-origin: 164.285px 239.246px 0px;" class="animable"></path></g></g><defs>     <filter id="active" height="200%">         <feMorphology in="SourceAlpha" result="DILATED" operator="dilate" radius="2"></feMorphology>                <feFlood flood-color="#32DFEC" flood-opacity="1" result="PINK"></feFlood>        <feComposite in="PINK" in2="DILATED" operator="in" result="OUTLINE"></feComposite>        <feMerge>            <feMergeNode in="OUTLINE"></feMergeNode>            <feMergeNode in="SourceGraphic"></feMergeNode>        </feMerge>    </filter>    <filter id="hover" height="200%">        <feMorphology in="SourceAlpha" result="DILATED" operator="dilate" radius="2"></feMorphology>                <feFlood flood-color="#ff0000" flood-opacity="0.5" result="PINK"></feFlood>        <feComposite in="PINK" in2="DILATED" operator="in" result="OUTLINE"></feComposite>        <feMerge>            <feMergeNode in="OUTLINE"></feMergeNode>            <feMergeNode in="SourceGraphic"></feMergeNode>        </feMerge>            <feColorMatrix type="matrix" values="0   0   0   0   0                0   1   0   0   0                0   0   0   0   0                0   0   0   1   0 "></feColorMatrix>    </filter></defs></svg>